<svg xmlns="http://www.w3.org/2000/svg" xmlns:xlink="http://www.w3.org/1999/xlink" viewBox="0 0 4000 4000" width="4000" height="4000" preserveAspectRatio="xMidYMid meet" style="width: 100%; height: 100%; transform: translate3d(0px, 0px, 0px); content-visibility: visible;"><defs><clipPath id="__lottie_element_2"><rect width="4000" height="4000" x="0" y="0"></rect></clipPath></defs><g clip-path="url(#__lottie_element_2)"><g transform="matrix(0.6818550229072571,0,0,0.7754271030426025,2000,3536.5)" opacity="0.35000000000000003" style="display: block;"><g opacity="1" transform="matrix(1,0,0,1,0,0)"><path fill="rgb(107,24,78)" fill-opacity="1" d=" M0,-75.0999984741211 C469.5565185546875,-75.0999984741211 850.7999877929688,-41.447689056396484 850.7999877929688,0 C850.7999877929688,41.447689056396484 469.5565185546875,75.0999984741211 0,75.0999984741211 C-469.5565185546875,75.0999984741211 -850.7999877929688,41.447689056396484 -850.7999877929688,0 C-850.7999877929688,-41.447689056396484 -469.5565185546875,-75.0999984741211 0,-75.0999984741211z"></path></g></g><g transform="matrix(1,0,0,1,1356.39990234375,1985.5546875)" opacity="1" style="display: block;"><g opacity="1" transform="matrix(1,0,0,1,0,0)"><path fill="rgb(236,193,142)" fill-opacity="1" d=" M1299.300048828125,566.4010009765625 C1298.9000244140625,577.9010009765625 1298,589.2999877929688 1296.699951171875,600.5999755859375 C1292.9000244140625,632.2000122070312 1285.5,663.2000122070312 1274.699951171875,692.7999877929688 C1237.300048828125,795.5999755859375 1159.4000244140625,882.7999877929688 1053.5,930 C1053.5,930 1047.5999755859375,932.5999755859375 1047.5999755859375,932.5999755859375 C927.5999755859375,986.0999755859375 799.7000122070312,1014.301025390625 671.2000122070312,1017.4010009765625 C654.2000122070312,1017.801025390625 637.2999877929688,1017.7999877929688 620.2999877929688,1017.2999877929688 C491.79998779296875,1013.7000122070312 363.8999938964844,984.7999877929688 244.10000610351562,930.7000122070312 C138.10000610351562,882.7999877929688 60.400001525878906,794.7000122070312 23.700000762939453,691.0999755859375 C20.100000381469727,681 16.899999618530273,670.7000122070312 14.199999809265137,660.4000244140625 C8.800000190734863,640.7999877929688 5,620.7000122070312 2.700000047683716,600.2999877929688 C1.2999999523162842,588.2000122070312 0.4000000059604645,576 0.10000000149011612,563.7000122070312 C0,560.2999877929688 0,557 0,553.7000122070312 C0,522.9000244140625 3.4000000953674316,491.79998779296875 10.600000381469727,460.79998779296875 C36,351 69.0999984741211,252.1999969482422 98.9000015258789,174.5 C116.0999984741211,129.8000030517578 132.10000610351562,92.0999984741211 145,63.29999923706055 C146,61 147,58.79999923706055 148,56.70000076293945 C158.5,33.599998474121094 166.60000610351562,17 171.10000610351562,7.900000095367432 C173.6999969482422,2.700000047683716 175.10000610351562,0 175.10000610351562,0 C175.10000610351562,0 1124.699951171875,0 1124.699951171875,0 C1124.699951171875,0 1126.300048828125,3 1129.199951171875,8.899999618530273 C1134.199951171875,18.899999618530273 1143,37.099998474121094 1154.300048828125,62.29999923706055 C1155.300048828125,64.5 1156.300048828125,66.69999694824219 1157.300048828125,68.9000015258789 C1172,102 1190.4000244140625,145.89999389648438 1209.699951171875,197.8000030517578 C1236.9000244140625,271.1000061035156 1265.9000244140625,360.6000061035156 1288.800048828125,459 C1297.199951171875,494.70098876953125 1300.5999755859375,530.9010009765625 1299.300048828125,566.4010009765625z"></path></g></g><g transform="matrix(1,0,0,1,1348.7999267578125,1977.9268798828125)" opacity="0.35000000000000003" style="display: block;"><g opacity="1" transform="matrix(1,0,0,1,0,0)"><path fill="rgb(107,24,78)" fill-opacity="1" d=" M1299.199951171875,566.5999755859375 C1297.699951171875,610.2000122070312 1289.199951171875,652.7999877929688 1274.5999755859375,693 C1237.199951171875,795.7999877929688 1159.300048828125,883 1053.4000244140625,930.2000122070312 C1053.4000244140625,930.2000122070312 1047.5,932.7999877929688 1047.5,932.7999877929688 C927.5,986.2999877929688 799.5999755859375,1014.5 671.0999755859375,1017.5999755859375 C661.5999755859375,1005.4000244140625 652.9000244140625,990.9000244140625 645.5999755859375,974.7999877929688 C638.2999877929688,990.7999877929688 629.7000122070312,1005.2999877929688 620.2000122070312,1017.4000244140625 C491.70001220703125,1013.7999877929688 363.79998779296875,984.9000244140625 244,930.7999877929688 C138,882.9000244140625 60.29999923706055,794.7999877929688 23.600000381469727,691.2000122070312 C9.199999809265137,650.5999755859375 1.100000023841858,607.5999755859375 0,563.7999877929688 C2.5,563 5.099999904632568,562.2000122070312 7.599999904632568,561.4000244140625 C7.599999904632568,558.7999877929688 7.5,556.2999877929688 7.5,553.7999877929688 C7.5,523 10.899999618530273,491.8999938964844 18.100000381469727,460.8999938964844 C43.5,351.1000061035156 76.5999984741211,252.3000030517578 106.4000015258789,174.60000610351562 C123.5999984741211,129.89999389648438 139.60000610351562,92.19999694824219 152.5,63.400001525878906 C153.5,61.099998474121094 154.5,58.900001525878906 155.5,56.79999923706055 C166,33.70000076293945 174.10000610351562,17.100000381469727 178.60000610351562,8 C181.1999969482422,2.799999952316284 182.60000610351562,0.10000000149011612 182.60000610351562,0.10000000149011612 C182.60000610351562,0.10000000149011612 219.5,0.10000000149011612 219.5,0.10000000149011612 C219.5,0.10000000149011612 219.60000610351562,3.700000047683716 219.60000610351562,3.700000047683716 C219.60000610351562,3.700000047683716 223.8000030517578,189.6999969482422 223.8000030517578,189.6999969482422 C223.8000030517578,189.6999969482422 229.5,399.79998779296875 129.60000610351562,553 C128.1999969482422,555.0999755859375 126.80000305175781,557.2000122070312 125.4000015258789,559.2999877929688 C238.60000610351562,576.7999877929688 204.6999969482422,609.4000244140625 556.9000244140625,718.5999755859375 C599.5999755859375,731.7999877929688 628.0999755859375,755.4000244140625 645.5,784.0999755859375 C662.9000244140625,755.4000244140625 691.4000244140625,731.9000244140625 734.0999755859375,718.5999755859375 C1096.300048828125,606.2999877929688 1050.199951171875,575 1175.5999755859375,557.7999877929688 C1174.5,556.2000122070312 1173.4000244140625,554.5999755859375 1172.4000244140625,552.9000244140625 C1072.5,399.70001220703125 1078.199951171875,189.60000610351562 1078.199951171875,189.60000610351562 C1078.199951171875,189.60000610351562 1082.4000244140625,3.5999999046325684 1082.4000244140625,3.5999999046325684 C1082.4000244140625,3.5999999046325684 1082.5,0 1082.5,0 C1082.5,0 1119.4000244140625,0 1119.4000244140625,0 C1119.4000244140625,0 1120.800048828125,2.700000047683716 1123.4000244140625,7.900000095367432 C1127.9000244140625,16.899999618530273 1136,33.599998474121094 1146.5,56.70000076293945 C1147.5,58.900001525878906 1148.5,61.099998474121094 1149.5,63.29999923706055 C1162.4000244140625,92.0999984741211 1178.5,129.89999389648438 1195.5999755859375,174.5 C1225.4000244140625,252.1999969482422 1258.5,351.1000061035156 1283.9000244140625,460.79998779296875 C1291.0999755859375,491.79998779296875 1294.5,523 1294.5,553.7000122070312 C1294.5,557.0999755859375 1294.5,560.4000244140625 1294.4000244140625,563.7000122070312 C1294.4000244140625,564.0999755859375 1294.4000244140625,564.5 1294.4000244140625,564.9000244140625 C1296.0989990234375,565.4000244140625 1297.699951171875,566 1299.199951171875,566.5999755859375z"></path></g></g><g transform="matrix(1,0,0,1,1356.554931640625,1985.2557373046875)" opacity="1" style="display: block;"><g opacity="1" transform="matrix(1,0,0,1,0,0)"><path stroke-linecap="round" stroke-linejoin="miter" fill-opacity="0" stroke-miterlimit="4" stroke="rgb(107,24,78)" stroke-opacity="1" stroke-width="32" d=" M1053.4449462890625,930.2000122070312 C1053.4449462890625,930.2000122070312 1047.5450439453125,932.9000244140625 1047.5450439453125,932.9000244140625 C791.7449951171875,1047 499.3450012207031,1046.199951171875 244.14500427246094,930.9000244140625 C244.14500427246094,930.9000244140625 244.14500427246094,930.9000244140625 244.14500427246094,930.9000244140625 C64.44499969482422,849.7000122070312 -33.85499954223633,653 10.645000457763672,460.79998779296875 C36.04499816894531,351.1000061035156 69.1449966430664,252.1999969482422 98.94499969482422,174.5 C140.14500427246094,67.0999984741211 175.14500427246094,0 175.14500427246094,0 C175.14500427246094,0 1124.7449951171875,0 1124.7449951171875,0 C1124.7449951171875,0 1164.844970703125,76.9000015258789 1209.64501953125,197.8000030517578 C1236.844970703125,271.1000061035156 1265.844970703125,360.6000061035156 1288.7449951171875,458.8999938964844 C1333.64501953125,651.9000244140625 1234.344970703125,849.5999755859375 1053.4449462890625,930.2000122070312z"></path></g></g><g transform="matrix(0.999989926815033,0.004487539175897837,-0.004487539175897837,0.999989926815033,1847.0859375,2997.6630859375)" opacity="1" style="display: block;"><g opacity="1" transform="matrix(1,0,0,1,0,0)"><path fill="rgb(255,255,255)" fill-opacity="1" d=" M121.9000015258789,0 C191,19 260.5,32.099998474121094 266.29998779296875,42.599998474121094 C282.79998779296875,72.4000015258789 103.5,147.60000610351562 0,106.0999984741211"></path></g></g><g transform="matrix(0.999989926815033,0.004487539175897837,-0.004487539175897837,0.999989926815033,1814.4219970703125,2978.856201171875)" opacity="1" style="display: block;"><g opacity="1" transform="matrix(1,0,0,1,0,0)"><path stroke-linecap="round" stroke-linejoin="miter" fill-opacity="0" stroke-miterlimit="4" stroke="rgb(107,24,78)" stroke-opacity="1" stroke-width="32" d=" M75.14700317382812,4.960000038146973 C96.24700164794922,-8.34000015258789 116.14700317382812,8.15999984741211 154.64700317382812,18.760000228881836 C223.7469940185547,37.7599983215332 293.24700927734375,50.86000061035156 299.0469970703125,61.36000061035156 C315.5469970703125,91.16000366210938 136.2469940185547,166.36000061035156 32.74700164794922,124.86000061035156 C-48.85300064086914,92.05999755859375 43.946998596191406,24.559999465942383 75.14700317382812,4.960000038146973z"></path></g></g><g transform="matrix(0.999989926815033,0.004487539175897837,-0.004487539175897837,0.999989926815033,1890.822998046875,2900.1572265625)" opacity="1" style="display: block;"><g opacity="1" transform="matrix(1,0,0,1,0,0)"><path fill="rgb(255,255,255)" fill-opacity="1" d=" M121.30000305175781,0 C190.5,18.600000381469727 260,31.299999237060547 265.8999938964844,41.79999923706055 C282.6000061035156,71.5999984741211 103.69999694824219,147.6999969482422 0,106.80000305175781"></path></g></g><g transform="matrix(0.999989926815033,0.004487539175897837,-0.004487539175897837,0.999989926815033,1858.0457763671875,2881.6240234375)" opacity="1" style="display: block;"><g opacity="1" transform="matrix(1,0,0,1,0,0)"><path stroke-linecap="round" stroke-linejoin="miter" fill-opacity="0" stroke-miterlimit="4" stroke="rgb(107,24,78)" stroke-opacity="1" stroke-width="32" d=" M74.66100311279297,5.086999893188477 C95.76100158691406,-8.413000106811523 115.66100311279297,8.086999893188477 154.26100158691406,18.386999130249023 C223.46099853515625,36.98699951171875 292.96099853515625,49.6870002746582 298.8609924316406,60.1870002746582 C315.5610046386719,89.98699951171875 136.66099548339844,166.08700561523438 32.96099853515625,125.18699645996094 C-48.8390007019043,92.98699951171875 43.56100082397461,24.98699951171875 74.66100311279297,5.086999893188477z"></path></g></g><g transform="matrix(0.999989926815033,0.004487539175897837,-0.004487539175897837,0.999989926815033,1837.244873046875,2781.754638671875)" opacity="1" style="display: block;"><g opacity="1" transform="matrix(1,0,0,1,0,0)"><path fill="rgb(255,255,255)" fill-opacity="1" d=" M72.70899963378906,5.461999893188477 C93.40899658203125,-8.437999725341797 113.80899810791016,7.461999893188477 152.50900268554688,16.961999893188477 C222.10899353027344,33.96200180053711 291.90899658203125,45.0620002746582 298.1090087890625,55.46200180053711 C315.5090026855469,84.86199951171875 138.3090057373047,165.06199645996094 33.808998107910156,126.46199798583984 C-48.79100036621094,96.06199645996094 42.10900115966797,25.961999893188477 72.70899963378906,5.461999893188477z"></path></g></g><g transform="matrix(0.999989926815033,0.004487539175897837,-0.004487539175897837,0.999989926815033,1837.244873046875,2781.754638671875)" opacity="1" style="display: block;"><g opacity="1" transform="matrix(1,0,0,1,0,0)"><path stroke-linecap="round" stroke-linejoin="miter" fill-opacity="0" stroke-miterlimit="4" stroke="rgb(107,24,78)" stroke-opacity="1" stroke-width="32" d=" M72.70899963378906,5.461999893188477 C93.40899658203125,-8.437999725341797 113.80899810791016,7.461999893188477 152.50900268554688,16.961999893188477 C222.10899353027344,33.96200180053711 291.90899658203125,45.0620002746582 298.1090087890625,55.46200180053711 C315.5090026855469,84.86199951171875 138.3090057373047,165.06199645996094 33.808998107910156,126.46199798583984 C-48.79100036621094,96.06199645996094 42.10900115966797,25.961999893188477 72.70899963378906,5.461999893188477z"></path></g></g><g transform="matrix(0.999989926815033,0.004487539175897837,-0.004487539175897837,0.999989926815033,1200.1248779296875,2591.99853515625)" opacity="1" style="display: block;"><g opacity="1" transform="matrix(1,0,0,1,0,0)"><path fill="rgb(211,161,127)" fill-opacity="1" d=" M727.6749877929688,492.2569885253906 C592.875,579.9569702148438 252.47500610351562,565.9569702148438 113.67500305175781,427.35699462890625 C-117.92500305175781,196.15699768066406 48.775001525878906,-16.042999267578125 220.375,0.9570000171661377 C386.7749938964844,17.457000732421875 303.9739990234375,44.55699920654297 693.573974609375,165.35699462890625 C866.4739990234375,219.0570068359375 805.7750244140625,441.35699462890625 727.6749877929688,492.2569885253906z"></path></g></g><g transform="matrix(0.999989926815033,0.004487539175897837,-0.004487539175897837,0.999989926815033,1200.1248779296875,2591.99853515625)" opacity="1" style="display: block;"><g opacity="1" transform="matrix(1,0,0,1,0,0)"><path fill="rgb(211,161,127)" fill-opacity="1" d=" M727.6749877929688,492.2569885253906 C592.875,579.9569702148438 252.47500610351562,565.9569702148438 113.67500305175781,427.35699462890625 C-117.92500305175781,196.15699768066406 48.775001525878906,-16.042999267578125 220.375,0.9570000171661377 C386.7749938964844,17.457000732421875 303.9739990234375,44.55699920654297 693.573974609375,165.35699462890625 C866.4739990234375,219.0570068359375 805.7750244140625,441.35699462890625 727.6749877929688,492.2569885253906z"></path></g></g><g transform="matrix(0.999989926815033,0.004487539175897837,-0.004487539175897837,0.999989926815033,1200.034912109375,2592.01318359375)" opacity="1" style="display: block;"><g opacity="1" transform="matrix(1,0,0,1,0,0)"><path fill="rgb(236,193,142)" fill-opacity="1" d=" M727.6640014648438,492.2409973144531 C592.864013671875,579.9409790039062 252.46400451660156,565.9409790039062 113.66400146484375,427.34100341796875 C-43.736000061035156,270.2409973144531 -17.13599967956543,121.94100189208984 69.86399841308594,48.340999603271484 C110.86399841308594,13.640999794006348 165.46400451660156,-4.459000110626221 220.46400451660156,0.9409999847412109 C356.864013671875,14.541000366210938 325.7640075683594,35.14099884033203 524.7639770507812,108.64099884033203 C568.5640258789062,124.84100341796875 623.364013671875,143.54100036621094 693.5640258789062,165.34100341796875 C866.5640258789062,219.04100036621094 805.864013671875,441.34100341796875 727.6640014648438,492.2409973144531z"></path></g></g><g transform="matrix(0.999989926815033,0.004487539175897837,-0.004487539175897837,0.999989926815033,1199.3958740234375,2736.853759765625)" opacity="0.35000000000000003" style="display: block;"><g opacity="1" transform="matrix(1,0,0,1,0,0)"><path fill="rgb(107,24,78)" fill-opacity="1" d=" M727.6530151367188,347.3999938964844 C592.85302734375,435.1000061035156 252.4530029296875,421.1000061035156 113.65299987792969,282.5 C8.95300006866455,178 -14.347000122070312,77.30000305175781 7.453000068664551,0 C21.05299949645996,53.29999923706055 54.25299835205078,111.4000015258789 113.65299987792969,170.60000610351562 C252.4530029296875,309.1000061035156 592.7529907226562,323.20001220703125 727.6530151367188,235.39999389648438 C757.552978515625,216 784.9530029296875,171.39999389648438 797.552978515625,120.80000305175781 C823.1530151367188,206 779.2529907226562,313.8999938964844 727.6530151367188,347.3999938964844z"></path></g></g><g transform="matrix(0.999989926815033,-0.004487539175897837,0.004487539175897837,0.999989926815033,2008.7969970703125,2595.611572265625)" opacity="1" style="display: block;"><g opacity="1" transform="matrix(1,0,0,1,0,0)"><path fill="rgb(211,161,127)" fill-opacity="1" d=" M77.41000366210938,492.2569885253906 C212.2100067138672,579.9569702148438 552.6099853515625,565.9569702148438 691.4099731445312,427.35699462890625 C923.010009765625,196.15699768066406 756.3099975585938,-16.042999267578125 584.7100219726562,0.9570000171661377 C418.30999755859375,17.457000732421875 501.1099853515625,44.55699920654297 111.51000213623047,165.35699462890625 C-61.4900016784668,219.0570068359375 -0.7900000214576721,441.35699462890625 77.41000366210938,492.2569885253906z"></path></g></g><g transform="matrix(0.999989926815033,0.004487539175897837,-0.004487539175897837,0.999989926815033,1200.1248779296875,2591.99853515625)" opacity="1" style="display: block;"><g opacity="1" transform="matrix(1,0,0,1,0,0)"><path stroke-linecap="round" stroke-linejoin="miter" fill-opacity="0" stroke-miterlimit="4" stroke="rgb(107,24,78)" stroke-opacity="1" stroke-width="32" d=" M727.6749877929688,492.2569885253906 C592.875,579.9569702148438 252.47500610351562,565.9569702148438 113.67500305175781,427.35699462890625 C-117.92500305175781,196.15699768066406 48.775001525878906,-16.042999267578125 220.375,0.9570000171661377 C386.7749938964844,17.457000732421875 303.9739990234375,44.55699920654297 693.573974609375,165.35699462890625 C866.4739990234375,219.0570068359375 805.7750244140625,441.35699462890625 727.6749877929688,492.2569885253906z"></path></g></g><g transform="matrix(0.999989926815033,-0.004487539175897837,0.004487539175897837,0.999989926815033,2008.7969970703125,2595.611572265625)" opacity="1" style="display: block;"><g opacity="1" transform="matrix(1,0,0,1,0,0)"><path fill="rgb(211,161,127)" fill-opacity="1" d=" M77.41000366210938,492.2569885253906 C212.2100067138672,579.9569702148438 552.6099853515625,565.9569702148438 691.4099731445312,427.35699462890625 C923.010009765625,196.15699768066406 756.3099975585938,-16.042999267578125 584.7100219726562,0.9570000171661377 C418.30999755859375,17.457000732421875 501.1099853515625,44.55699920654297 111.51000213623047,165.35699462890625 C-61.4900016784668,219.0570068359375 -0.7900000214576721,441.35699462890625 77.41000366210938,492.2569885253906z"></path></g></g><g transform="matrix(0.999989926815033,-0.004487539175897837,0.004487539175897837,0.999989926815033,1899.551513671875,2998.86279296875)" opacity="1" style="display: block;"><g opacity="1" transform="matrix(1,0,0,1,0,0)"><path fill="rgb(255,255,255)" fill-opacity="1" d=" M145.46400451660156,0 C76.36399841308594,19 6.863999843597412,32.099998474121094 1.0640000104904175,42.599998474121094 C-15.435999870300293,72.4000015258789 163.86399841308594,147.60000610351562 267.364013671875,106.0999984741211"></path></g></g><g transform="matrix(0.999989926815033,-0.004487539175897837,0.004487539175897837,0.999989926815033,1899.4677734375,2980.203125)" opacity="1" style="display: block;"><g opacity="1" transform="matrix(1,0,0,1,0,0)"><path stroke-linecap="round" stroke-linejoin="miter" fill-opacity="0" stroke-miterlimit="4" stroke="rgb(107,24,78)" stroke-opacity="1" stroke-width="32" d=" M224.96400451660156,4.960000038146973 C203.86399841308594,-8.34000015258789 183.96400451660156,8.15999984741211 145.46400451660156,18.760000228881836 C76.36399841308594,37.7599983215332 6.863999843597412,50.86000061035156 1.0640000104904175,61.36000061035156 C-15.435999870300293,91.16000366210938 163.86399841308594,166.36000061035156 267.364013671875,124.86000061035156 C348.864013671875,92.05999755859375 256.0639953613281,24.559999465942383 224.96400451660156,4.960000038146973z"></path></g></g><g transform="matrix(0.999989926815033,-0.004487539175897837,0.004487539175897837,0.999989926815033,1856.08544921875,2901.35595703125)" opacity="1" style="display: block;"><g opacity="1" transform="matrix(1,0,0,1,0,0)"><path fill="rgb(255,255,255)" fill-opacity="1" d=" M145.6909942626953,0 C76.49099731445312,18.600000381469727 6.991000175476074,31.299999237060547 1.090999960899353,41.79999923706055 C-15.609000205993652,71.5999984741211 163.29100036621094,147.6999969482422 266.9909973144531,106.80000305175781"></path></g></g><g transform="matrix(0.999989926815033,-0.004487539175897837,0.004487539175897837,0.999989926815033,1856.0040283203125,2882.969970703125)" opacity="1" style="display: block;"><g opacity="1" transform="matrix(1,0,0,1,0,0)"><path stroke-linecap="round" stroke-linejoin="miter" fill-opacity="0" stroke-miterlimit="4" stroke="rgb(107,24,78)" stroke-opacity="1" stroke-width="32" d=" M225.29100036621094,5.086999893188477 C204.1909942626953,-8.413000106811523 184.29100036621094,8.086999893188477 145.6909942626953,18.386999130249023 C76.49099731445312,36.98699951171875 6.991000175476074,49.6870002746582 1.090999960899353,60.1870002746582 C-15.609000205993652,89.98699951171875 163.29100036621094,166.08700561523438 266.9909973144531,125.18699645996094 C348.6910095214844,92.98699951171875 256.2909851074219,24.98699951171875 225.29100036621094,5.086999893188477z"></path></g></g><g transform="matrix(0.999989926815033,-0.004487539175897837,0.004487539175897837,0.999989926815033,1877.455078125,2783.09765625)" opacity="1" style="display: block;"><g opacity="1" transform="matrix(1,0,0,1,0,0)"><path fill="rgb(255,255,255)" fill-opacity="1" d=" M226.5919952392578,5.461999893188477 C205.89199829101562,-8.437999725341797 185.49200439453125,7.461999893188477 146.79200744628906,16.961999893188477 C77.19200134277344,33.96200180053711 7.392000198364258,45.0620002746582 1.1920000314712524,55.46200180053711 C-16.20800018310547,84.86199951171875 160.99200439453125,165.06199645996094 265.49200439453125,126.46199798583984 C347.99200439453125,96.06199645996094 257.0920104980469,25.961999893188477 226.5919952392578,5.461999893188477z"></path></g></g><g transform="matrix(0.999989926815033,-0.004487539175897837,0.004487539175897837,0.999989926815033,1877.455078125,2783.09765625)" opacity="1" style="display: block;"><g opacity="1" transform="matrix(1,0,0,1,0,0)"><path stroke-linecap="round" stroke-linejoin="miter" fill-opacity="0" stroke-miterlimit="4" stroke="rgb(107,24,78)" stroke-opacity="1" stroke-width="32" d=" M226.5919952392578,5.461999893188477 C205.89199829101562,-8.437999725341797 185.49200439453125,7.461999893188477 146.79200744628906,16.961999893188477 C77.19200134277344,33.96200180053711 7.392000198364258,45.0620002746582 1.1920000314712524,55.46200180053711 C-16.20800018310547,84.86199951171875 160.99200439453125,165.06199645996094 265.49200439453125,126.46199798583984 C347.99200439453125,96.06199645996094 257.0920104980469,25.961999893188477 226.5919952392578,5.461999893188477z"></path></g></g><g transform="matrix(0.999989926815033,-0.004487539175897837,0.004487539175897837,0.999989926815033,2008.7969970703125,2595.611572265625)" opacity="1" style="display: block;"><g opacity="1" transform="matrix(1,0,0,1,0,0)"><path fill="rgb(236,193,142)" fill-opacity="1" d=" M77.41000366210938,492.2569885253906 C212.2100067138672,579.9569702148438 552.6099853515625,565.9569702148438 691.4099731445312,427.35699462890625 C923.010009765625,196.15699768066406 756.3099975585938,-16.042999267578125 584.7100219726562,0.9570000171661377 C418.30999755859375,17.457000732421875 501.1099853515625,44.55699920654297 111.51000213623047,165.35699462890625 C-61.4900016784668,219.0570068359375 -0.7900000214576721,441.35699462890625 77.41000366210938,492.2569885253906z"></path></g></g><g transform="matrix(0.999989926815033,-0.004487539175897837,0.004487539175897837,0.999989926815033,2009.3516845703125,2739.2666015625)" opacity="0.35000000000000003" style="display: block;"><g opacity="1" transform="matrix(1,0,0,1,0,0)"><path fill="rgb(107,24,78)" fill-opacity="1" d=" M691.4000244140625,283.70001220703125 C552.5999755859375,422.29998779296875 212.3000030517578,436.29998779296875 77.4000015258789,348.6000061035156 C25.600000381469727,314.8999938964844 -18.399999618530273,206.1999969482422 7.800000190734863,121 C20.600000381469727,171 47.70000076293945,214.89999389648438 77.4000015258789,234.1999969482422 C212.1999969482422,321.8999938964844 552.5999755859375,307.79998779296875 691.4000244140625,169.3000030517578 C750.2999877929688,110.5 783.5,52.900001525878906 797.2999877929688,0 C819.7000122070312,77.5 796.7000122070312,178.60000610351562 691.4000244140625,283.70001220703125z"></path></g></g><g transform="matrix(0.999989926815033,-0.004487539175897837,0.004487539175897837,0.999989926815033,2008.7969970703125,2595.611572265625)" opacity="1" style="display: block;"><g opacity="1" transform="matrix(1,0,0,1,0,0)"><path stroke-linecap="round" stroke-linejoin="miter" fill-opacity="0" stroke-miterlimit="4" stroke="rgb(107,24,78)" stroke-opacity="1" stroke-width="32" d=" M77.41000366210938,492.2569885253906 C212.2100067138672,579.9569702148438 552.6099853515625,565.9569702148438 691.4099731445312,427.35699462890625 C923.010009765625,196.15699768066406 756.3099975585938,-16.042999267578125 584.7100219726562,0.9570000171661377 C418.30999755859375,17.457000732421875 501.1099853515625,44.55699920654297 111.51000213623047,165.35699462890625 C-61.4900016784668,219.0570068359375 -0.7900000214576721,441.35699462890625 77.41000366210938,492.2569885253906z"></path></g></g><g transform="matrix(1,0,0,1,877.015869140625,1927.9556884765625)" opacity="1" style="display: block;"><g opacity="1" transform="matrix(1,0,0,1,0,0)"><path fill="rgb(236,193,142)" fill-opacity="1" d=" M796.2839965820312,0 C796.2839965820312,0 778.2839965820312,57.29999923706055 778.2839965820312,57.29999923706055 C778.2839965820312,57.29999923706055 743.9840087890625,166.39999389648438 743.9840087890625,166.39999389648438 C743.9840087890625,166.39999389648438 688.1840209960938,344 688.1840209960938,344 C688.1840209960938,344 625.9840087890625,544.7000122070312 482.1839904785156,657.7000122070312 C435.5840148925781,694.2999877929688 380.3840026855469,721.7000122070312 315.9840087890625,730.0999755859375 C-121.01599884033203,787 22.583999633789062,459.1000061035156 22.583999633789062,459.1000061035156 C22.583999633789062,459.1000061035156 236.98399353027344,431 308.9840087890625,406.3999938964844 C406.78399658203125,373 450.3840026855469,221.8000030517578 594.2839965820312,105.4000015258789 C611.583984375,91.4000015258789 630.2839965820312,78 650.6840209960938,65.19999694824219 C654.9840087890625,62.5 659.2839965820312,59.900001525878906 663.6840209960938,57.29999923706055 C701.6840209960938,35.099998474121094 745.3839721679688,15.5 796.2839965820312,0z"></path></g></g><g transform="matrix(1,0,0,1,877.015869140625,2287.755615234375)" opacity="0.35000000000000003" style="display: block;"><g opacity="1" transform="matrix(1,0,0,1,0,0)"><path fill="rgb(107,24,78)" fill-opacity="1" d=" M682.7839965820312,0 C665.2839965820312,48.29999923706055 604.7839965820312,196.39999389648438 490.9840087890625,290.79998779296875 C490.1839904785156,291.5 489.28399658203125,292.20001220703125 488.4840087890625,292.8999938964844 C486.3840026855469,294.6000061035156 484.28399658203125,296.29998779296875 482.1839904785156,297.8999938964844 C435.5840148925781,334.5 380.3840026855469,361.8999938964844 315.9840087890625,370.29998779296875 C-121.01599884033203,427.20001220703125 22.583999633789062,99.30000305175781 22.583999633789062,99.30000305175781 C22.583999633789062,99.30000305175781 195.1840057373047,70.0999984741211 270.28399658203125,57.29999923706055 C302.8840026855469,121.19999694824219 203.78399658203125,146.5 203.78399658203125,200.8000030517578 C203.78399658203125,254.1999969482422 228.48399353027344,273.3999938964844 274.28399658203125,283.1000061035156 C353.9840087890625,300.1000061035156 437.4840087890625,280.29998779296875 501.6839904785156,230.10000610351562 C502.0840148925781,229.8000030517578 502.5840148925781,229.39999389648438 502.9840087890625,229.10000610351562 C622.083984375,135.5 669.7839965820312,32.599998474121094 682.7839965820312,0z"></path></g></g><g transform="matrix(1,0,0,1,860.8409423828125,1922.8287353515625)" opacity="1" style="display: block;"><g opacity="1" transform="matrix(1,0,0,1,0,0)"><path fill="rgb(107,24,78)" fill-opacity="1" d=" M813.958984375,10.227999687194824 C779.0590209960938,28.92799949645996 744.6589965820312,45.22800064086914 711.3590087890625,63.72800064086914 C678.2589721679688,82.4280014038086 646.5590209960938,103.3280029296875 616.8590087890625,127.02799987792969 C609.3590087890625,132.8280029296875 602.3590087890625,139.22799682617188 595.0590209960938,145.3280029296875 C588.1589965820312,151.92799377441406 580.958984375,158.1280059814453 574.3590087890625,165.0279998779297 C560.6589965820312,178.3280029296875 547.958984375,192.6280059814453 535.458984375,207.22799682617188 C510.65899658203125,236.6280059814453 487.9590148925781,267.8269958496094 464.9590148925781,299.62701416015625 C453.4590148925781,315.5270080566406 441.7590026855469,331.427001953125 429.15899658203125,347.12701416015625 C416.5589904785156,362.72698974609375 403.15899658203125,378.12701416015625 387.3590087890625,392.12701416015625 C371.65899658203125,406.0270080566406 353.3590087890625,418.3269958496094 332.5589904785156,425.8269958496094 C312.5589904785156,432.8269958496094 293.3590087890625,437.0270080566406 273.8590087890625,441.5270080566406 C196.25900268554688,457.927001953125 118.85900115966797,469.427001953125 40.85900115966797,480.12701416015625 C40.85900115966797,480.12701416015625 53.45899963378906,470.7279968261719 53.45899963378906,470.7279968261719 C51.659000396728516,475.02801513671875 49.659000396728516,480.4280090332031 47.95899963378906,485.3280029296875 C46.25899887084961,490.4280090332031 44.659000396728516,495.52801513671875 43.159000396728516,500.7279968261719 C40.159000396728516,511.12799072265625 37.85900115966797,521.6279907226562 35.95899963378906,532.22802734375 C32.35900115966797,553.3280029296875 30.858999252319336,574.8270263671875 33.25899887084961,595.427001953125 C35.558998107910156,616.0269775390625 41.45899963378906,635.927978515625 51.659000396728516,653.0280151367188 C61.95899963378906,670.1279907226562 76.85900115966797,684.1279907226562 94.35900115966797,694.72802734375 C111.85900115966797,705.5280151367188 132.15899658203125,712.1270141601562 152.75900268554688,717.1270141601562 C152.75900268554688,717.1270141601562 168.45899963378906,720.427001953125 168.45899963378906,720.427001953125 C173.75900268554688,721.3270263671875 179.15899658203125,721.8270263671875 184.5590057373047,722.6270141601562 C195.25900268554688,724.3270263671875 206.25900268554688,724.5269775390625 217.15899658203125,725.3270263671875 C219.85899353027344,725.427001953125 222.5590057373047,725.7269897460938 225.35899353027344,725.7269897460938 C225.35899353027344,725.7269897460938 233.65899658203125,725.7269897460938 233.65899658203125,725.7269897460938 C233.65899658203125,725.7269897460938 250.15899658203125,725.6270141601562 250.15899658203125,725.6270141601562 C255.65899658203125,725.7269897460938 261.15899658203125,725.3270263671875 266.65899658203125,725.0269775390625 C266.65899658203125,725.0269775390625 283.2590026855469,724.0269775390625 283.2590026855469,724.0269775390625 C283.2590026855469,724.0269775390625 291.5589904785156,723.5269775390625 291.5589904785156,723.5269775390625 C291.5589904785156,723.5269775390625 299.8590087890625,722.6270141601562 299.8590087890625,722.6270141601562 C299.8590087890625,722.6270141601562 316.4590148925781,720.8270263671875 316.4590148925781,720.8270263671875 C321.9590148925781,720.1270141601562 327.65899658203125,719.8270263671875 332.9590148925781,718.8270263671875 C332.9590148925781,718.8270263671875 348.8590087890625,716.1270141601562 348.8590087890625,716.1270141601562 C369.8590087890625,711.6270141601562 390.65899658203125,705.927001953125 410.3590087890625,697.0269775390625 C430.15899658203125,688.427001953125 449.2590026855469,678.1270141601562 467.0589904785156,665.7269897460938 C484.9590148925781,653.5269775390625 502.0589904785156,639.8270263671875 517.8590087890625,624.7269897460938 C533.7589721679688,609.7269897460938 548.8590087890625,593.6270141601562 562.6589965820312,576.5269775390625 C590.5590209960938,542.427001953125 615.1589965820312,505.22698974609375 635.0590209960938,465.5270080566406 C635.0590209960938,465.5270080566406 665.2589721679688,406.12701416015625 665.2589721679688,406.12701416015625 C670.458984375,396.22698974609375 675.5590209960938,386.3269958496094 681.2589721679688,376.62701416015625 C686.8590087890625,366.8269958496094 692.6589965820312,357.0270080566406 699.2589721679688,347.62701416015625 C699.2589721679688,347.62701416015625 699.3590087890625,347.427001953125 699.3590087890625,347.427001953125 C701.0590209960938,344.927001953125 704.5590209960938,344.3269958496094 707.0590209960938,346.0270080566406 C708.6589965820312,347.12701416015625 709.458984375,348.927001953125 709.458984375,350.72698974609375 C709.0590209960938,362.8269958496094 707.0590209960938,374.22698974609375 704.3590087890625,385.62701416015625 C701.7589721679688,396.927001953125 698.3590087890625,408.0270080566406 694.2589721679688,418.8269958496094 C686.2589721679688,440.5270080566406 676.3590087890625,461.427001953125 664.8590087890625,481.5270080566406 C641.6589965820312,521.5269775390625 617.0590209960938,560.8270263671875 587.3590087890625,596.7269897460938 C572.7589721679688,614.8270263671875 556.7589721679688,631.927001953125 539.7589721679688,647.927001953125 C522.8590087890625,664.1270141601562 504.4590148925781,678.8270263671875 484.9590148925781,692.1270141601562 C446.15899658203125,718.8270263671875 401.65899658203125,738.3270263671875 354.8590087890625,747.5269775390625 C354.8590087890625,747.5269775390625 337.2590026855469,750.5269775390625 337.2590026855469,750.5269775390625 C331.3590087890625,751.5269775390625 325.7590026855469,751.927001953125 319.9590148925781,752.6270141601562 C319.9590148925781,752.6270141601562 302.7590026855469,754.427001953125 302.7590026855469,754.427001953125 C302.7590026855469,754.427001953125 294.15899658203125,755.3270263671875 294.15899658203125,755.3270263671875 C294.15899658203125,755.3270263671875 285.4590148925781,755.8270263671875 285.4590148925781,755.8270263671875 C285.4590148925781,755.8270263671875 268.0589904785156,756.8270263671875 268.0589904785156,756.8270263671875 C262.2590026855469,757.1270141601562 256.4590148925781,757.6270141601562 250.65899658203125,757.5269775390625 C250.65899658203125,757.5269775390625 233.15899658203125,757.6270141601562 233.15899658203125,757.6270141601562 C233.15899658203125,757.6270141601562 224.45899963378906,757.6270141601562 224.45899963378906,757.6270141601562 C221.5590057373047,757.6270141601562 218.65899658203125,757.3270263671875 215.65899658203125,757.2269897460938 C203.95899963378906,756.427001953125 192.25900268554688,756.2269897460938 180.5590057373047,754.3270263671875 C174.65899658203125,753.5269775390625 168.85899353027344,752.927001953125 162.95899963378906,751.927001953125 C162.95899963378906,751.927001953125 145.45899963378906,748.2269897460938 145.45899963378906,748.2269897460938 C122.25900268554688,742.6270141601562 98.95899963378906,735.0269775390625 77.65899658203125,722.0269775390625 C56.45899963378906,709.1270141601562 37.35900115966797,691.3270263671875 24.259000778198242,669.5269775390625 C11.159000396728516,647.7269897460938 4.059000015258789,623.1270141601562 1.3589999675750732,598.8270263671875 C-1.440999984741211,574.427001953125 0.35899999737739563,550.2269897460938 4.258999824523926,526.7269897460938 C6.359000205993652,515.0269775390625 8.859000205993652,503.3269958496094 12.159000396728516,491.927001953125 C13.758999824523926,486.22698974609375 15.559000015258789,480.5270080566406 17.458999633789062,474.927001953125 C19.458999633789062,469.22698974609375 21.259000778198242,463.927001953125 23.958999633789062,457.72698974609375 C23.958999633789062,457.72698974609375 27.458999633789062,449.5270080566406 27.458999633789062,449.5270080566406 C27.458999633789062,449.5270080566406 36.558998107910156,448.3269958496094 36.558998107910156,448.3269958496094 C113.65899658203125,437.72698974609375 191.25900268554688,426.22698974609375 266.8590087890625,410.12701416015625 C285.5589904785156,405.927001953125 304.5589904785156,401.5270080566406 321.5589904785156,395.62701416015625 C337.65899658203125,389.8269958496094 352.4590148925781,380.0270080566406 366.0589904785156,368.0270080566406 C379.65899658203125,356.0270080566406 392.15899658203125,341.8269958496094 404.0589904785156,327.0270080566406 C415.9590148925781,312.12701416015625 427.4590148925781,296.5270080566406 438.9590148925781,280.72698974609375 C461.8590087890625,249.1269989013672 485.15899658203125,217.02699279785156 510.9590148925781,186.52699279785156 C536.8590087890625,156.2270050048828 564.6589965820312,127.0270004272461 595.5590209960938,101.12699890136719 C626.2589721679688,75.0270004272461 660.0590209960938,52.32699966430664 696.2589721679688,34.72700119018555 C732.3590087890625,16.927000045776367 770.958984375,4.2270002365112305 810.958984375,0.027000000700354576 C813.958984375,-0.27300000190734863 816.6589965820312,1.9279999732971191 816.958984375,4.828000068664551 C817.0590209960938,7.127999782562256 815.8590087890625,9.227999687194824 813.958984375,10.227999687194824 C813.958984375,10.227999687194824 813.958984375,10.227999687194824 813.958984375,10.227999687194824z"></path></g></g><g transform="matrix(1,0,0,1,892.826904296875,2303.20458984375)" opacity="1" style="display: block;"><g opacity="1" transform="matrix(1,0,0,1,0,0)"><path fill="rgb(255,255,255)" fill-opacity="1" d=" M173.3730010986328,125.2509994506836 C164.47300720214844,134.4510040283203 149.8730010986328,134.8509979248047 140.3730010986328,126.1510009765625 C118.072998046875,105.7509994506836 73.87300109863281,73.95099639892578 14.072999954223633,72.95099639892578 C-33.426998138427734,72.1510009765625 48.472999572753906,-5.848999977111816 123.4729995727539,0.35100001096725464 C173.2729949951172,4.451000213623047 208.8730010986328,26.35099983215332 230.072998046875,44.35100173950195 C242.47300720214844,54.85100173950195 240.7729949951172,74.35099792480469 226.8730010986328,82.7509994506836 C218.17300415039062,88.0510025024414 207.572998046875,95.0510025024414 195.7729949951172,104.35099792480469 C189.2729949951172,109.35099792480469 180.7729949951172,117.6510009765625 173.3730010986328,125.2509994506836z"></path></g></g><g transform="matrix(1,0,0,1,892.8348999023438,2332.755615234375)" opacity="0.35000000000000003" style="display: block;"><g opacity="1" transform="matrix(1,0,0,1,0,0)"><path fill="rgb(107,24,78)" fill-opacity="1" d=" M226.86500549316406,53.099998474121094 C218.1649932861328,58.400001525878906 207.6649932861328,65.4000015258789 195.76499938964844,74.69999694824219 C189.26499938964844,79.80000305175781 180.76499938964844,88.0999984741211 173.36500549316406,95.69999694824219 C164.46499633789062,104.9000015258789 149.86500549316406,105.30000305175781 140.36500549316406,96.5999984741211 C117.96499633789062,76.0999984741211 73.76499938964844,44.400001525878906 14.0649995803833,43.400001525878906 C-11.53499984741211,43 0.4650000035762787,20 28.764999389648438,0 C85.56500244140625,2.9000000953674316 127.56500244140625,33.29999923706055 149.26499938964844,53 C158.6649932861328,61.70000076293945 173.26499938964844,61.29999923706055 182.26499938964844,52.099998474121094 C189.6649932861328,44.5 198.1649932861328,36.20000076293945 204.6649932861328,31.100000381469727 C213.6649932861328,24.100000381469727 221.76499938964844,18.399999618530273 228.96499633789062,13.800000190734863 C229.36500549316406,14.100000381469727 229.76499938964844,14.399999618530273 230.1649932861328,14.800000190734863 C242.46499633789062,25.299999237060547 240.76499938964844,44.70000076293945 226.86500549316406,53.099998474121094z"></path></g></g><g transform="matrix(1,0,0,1,892.826904296875,2303.20458984375)" opacity="1" style="display: block;"><g opacity="1" transform="matrix(1,0,0,1,0,0)"><path stroke-linecap="round" stroke-linejoin="miter" fill-opacity="0" stroke-miterlimit="4" stroke="rgb(107,24,78)" stroke-opacity="1" stroke-width="32" d=" M171.7729949951172,126.85099792480469 C163.7729949951172,135.1510009765625 150.47300720214844,135.6510009765625 142.072998046875,127.7509994506836 C120.37300109863281,107.45099639892578 75.37300109863281,73.95099639892578 14.072999954223633,72.95099639892578 C-33.426998138427734,72.1510009765625 48.472999572753906,-5.848999977111816 123.4729995727539,0.35100001096725464 C175.8730010986328,4.651000022888184 212.3730010986328,28.650999069213867 233.17300415039062,47.05099868774414 C243.97300720214844,56.55099868774414 242.072998046875,73.7509994506836 229.67300415039062,81.0510025024414 C220.47300720214844,86.45099639892578 208.8730010986328,94.0510025024414 195.67300415039062,104.35099792480469 C188.7729949951172,109.7509994506836 179.572998046875,118.85099792480469 171.7729949951172,126.85099792480469z"></path></g></g><g transform="matrix(1,0,0,1,861.5278930664062,2331.28076171875)" opacity="1" style="display: block;"><g opacity="1" transform="matrix(1,0,0,1,0,0)"><path fill="rgb(255,255,255)" fill-opacity="1" d=" M106.97100067138672,234.6750030517578 C106.97100067138672,234.6750030517578 34.87099838256836,255.0749969482422 8.571000099182129,169.6750030517578 C-27.52899932861328,52.474998474121094 60.87099838256836,-5.925000190734863 80.1709976196289,0.4749999940395355 C99.47100067138672,6.875 72.6709976196289,73.2750015258789 135.87100219726562,129.375 C159.17100524902344,150.0749969482422 144.87100219726562,204.1750030517578 106.97100067138672,234.6750030517578z"></path></g></g><g transform="matrix(1,0,0,1,861.5388793945312,2408.855712890625)" opacity="0.35000000000000003" style="display: block;"><g opacity="1" transform="matrix(1,0,0,1,0,0)"><path fill="rgb(107,24,78)" fill-opacity="1" d=" M106.95999908447266,157.10000610351562 C106.95999908447266,157.10000610351562 34.86000061035156,177.5 8.5600004196167,92.0999984741211 C-2.640000104904175,55.70000076293945 -1.840000033378601,24.899999618530273 5.159999847412109,0 C6.159999847412109,4 7.260000228881836,8.100000381469727 8.5600004196167,12.300000190734863 C34.86000061035156,97.69999694824219 106.95999908447266,77.30000305175781 106.95999908447266,77.30000305175781 C117.26000213623047,69.0999984741211 125.76000213623047,59.099998474121094 132.25999450683594,48.5 C133.4600067138672,49.599998474121094 134.55999755859375,50.70000076293945 135.75999450683594,51.70000076293945 C159.16000366210938,72.5 144.86000061035156,126.5999984741211 106.95999908447266,157.10000610351562z"></path></g></g><g transform="matrix(1,0,0,1,861.5278930664062,2331.28076171875)" opacity="1" style="display: block;"><g opacity="1" transform="matrix(1,0,0,1,0,0)"><path stroke-linecap="round" stroke-linejoin="miter" fill-opacity="0" stroke-miterlimit="4" stroke="rgb(107,24,78)" stroke-opacity="1" stroke-width="32" d=" M106.97100067138672,234.6750030517578 C106.97100067138672,234.6750030517578 34.87099838256836,255.0749969482422 8.571000099182129,169.6750030517578 C-27.52899932861328,52.474998474121094 60.87099838256836,-5.925000190734863 80.1709976196289,0.4749999940395355 C99.47100067138672,6.875 72.6709976196289,73.2750015258789 135.87100219726562,129.375 C159.17100524902344,150.0749969482422 144.87100219726562,204.1750030517578 106.97100067138672,234.6750030517578z"></path></g></g><g transform="matrix(1,0,0,1,785.6959228515625,2503.95556640625)" opacity="1" style="display: block;"><g opacity="1" transform="matrix(1,0,0,1,0,0)"><path fill="rgb(255,255,255)" fill-opacity="1" d=" M249.9040069580078,120 C235.50399780273438,134.5 214.70399475097656,141.39999389648438 163.20399475097656,132 C58.00400161743164,112.9000015258789 -20.59600067138672,39.79999923706055 4.803999900817871,12.800000190734863 C21.90399932861328,-5.400000095367432 57.30400085449219,9.699999809265137 101.80400085449219,11.5 C180.60400390625,14.699999809265137 201.4040069580078,0 219.8040008544922,0 C260.60400390625,0 293.0039978027344,76.5 249.9040069580078,120z"></path></g></g><g transform="matrix(1,0,0,1,785.761962890625,2518.754638671875)" opacity="0.35000000000000003" style="display: block;"><g opacity="1" transform="matrix(1,0,0,1,0,0)"><path fill="rgb(107,24,78)" fill-opacity="1" d=" M249.83799743652344,105.0999984741211 C235.43800354003906,119.69999694824219 214.63800048828125,126.5 163.13800048828125,117.0999984741211 C60.53799819946289,98.5 -16.761999130249023,28.5 3.138000011444092,0 C30.937999725341797,28.100000381469727 83.43800354003906,57.79999923706055 144.93800354003906,69 C196.33799743652344,78.4000015258789 217.23800659179688,71.5 231.63800048828125,57 C247.13800048828125,41.400001525878906 252.83799743652344,21.399999618530273 251.93800354003906,2.4000000953674316 C273.0379943847656,27.5 280.2380065917969,74.5 249.83799743652344,105.0999984741211z"></path></g></g><g transform="matrix(1,0,0,1,785.6959228515625,2503.95556640625)" opacity="1" style="display: block;"><g opacity="1" transform="matrix(1,0,0,1,0,0)"><path stroke-linecap="round" stroke-linejoin="miter" fill-opacity="0" stroke-miterlimit="4" stroke="rgb(107,24,78)" stroke-opacity="1" stroke-width="32" d=" M249.9040069580078,120 C235.50399780273438,134.5 214.70399475097656,141.39999389648438 163.20399475097656,132 C58.00400161743164,112.9000015258789 -20.59600067138672,39.79999923706055 4.803999900817871,12.800000190734863 C21.90399932861328,-5.400000095367432 57.30400085449219,9.699999809265137 101.80400085449219,11.5 C180.60400390625,14.699999809265137 201.4040069580078,0 219.8040008544922,0 C260.60400390625,0 293.0039978027344,76.5 249.9040069580078,120z"></path></g></g><g transform="matrix(1,0,0,1,2326.699951171875,1927.9566650390625)" opacity="1" style="display: block;"><g opacity="1" transform="matrix(1,0,0,1,0,0)"><path fill="rgb(236,193,142)" fill-opacity="1" d=" M0,0 C0,0 18,57.29999923706055 18,57.29999923706055 C18,57.29999923706055 52.29999923706055,166.39999389648438 52.29999923706055,166.39999389648438 C52.29999923706055,166.39999389648438 108.0999984741211,344 108.0999984741211,344 C108.0999984741211,344 170.3000030517578,544.7000122070312 314.1000061035156,657.7000122070312 C360.70001220703125,694.2999877929688 415.8999938964844,721.7000122070312 480.29998779296875,730.0999755859375 C917.2999877929688,787 773.7000122070312,459.1000061035156 773.7000122070312,459.1000061035156 C773.7000122070312,459.1000061035156 559.2999877929688,431 487.29998779296875,406.3999938964844 C389.5,373 345.8999938964844,221.8000030517578 202,105.4000015258789 C184.6999969482422,91.4000015258789 166,78 145.60000610351562,65.19999694824219 C141.3000030517578,62.5 137,59.900001525878906 132.60000610351562,57.29999923706055 C94.5999984741211,35.099998474121094 50.900001525878906,15.5 0,0z"></path></g></g><g transform="matrix(1,0,0,1,2440.199951171875,2287.7568359375)" opacity="0.35000000000000003" style="display: block;"><g opacity="1" transform="matrix(1,0,0,1,0,0)"><path fill="rgb(107,24,78)" fill-opacity="1" d=" M0,0 C17.5,48.29999923706055 78,196.39999389648438 191.8000030517578,290.79998779296875 C192.60000610351562,291.5 193.5,292.20001220703125 194.3000030517578,292.8999938964844 C196.39999389648438,294.6000061035156 198.5,296.29998779296875 200.60000610351562,297.8999938964844 C247.1999969482422,334.5 302.3999938964844,361.8999938964844 366.79998779296875,370.29998779296875 C803.7999877929688,427.20001220703125 660.2000122070312,99.30000305175781 660.2000122070312,99.30000305175781 C660.2000122070312,99.30000305175781 487.6000061035156,70.0999984741211 412.5,57.29999923706055 C379.8999938964844,121.19999694824219 479,146.5 479,200.8000030517578 C479,254.1999969482422 454.29998779296875,273.3999938964844 408.5,283.1000061035156 C328.79998779296875,300.1000061035156 245.3000030517578,280.29998779296875 181.10000610351562,230.10000610351562 C180.6999969482422,229.8000030517578 180.1999969482422,229.39999389648438 179.8000030517578,229.10000610351562 C60.70000076293945,135.5 13,32.599998474121094 0,0z"></path></g></g><g transform="matrix(1,0,0,1,2322.364990234375,1922.8306884765625)" opacity="1" style="display: block;"><g opacity="1" transform="matrix(1,0,0,1,0,0)"><path fill="rgb(107,24,78)" fill-opacity="1" d=" M5.934999942779541,0.02500000037252903 C45.935001373291016,4.224999904632568 84.53500366210938,16.825000762939453 120.63500213623047,34.724998474121094 C156.8350067138672,52.42499923706055 190.63400268554688,75.125 221.33399963378906,101.125 C252.23399353027344,127.0250015258789 279.93499755859375,156.22500610351562 305.93499755859375,186.52499389648438 C331.635009765625,217.02499389648438 355.0350036621094,249.125 377.93499755859375,280.7250061035156 C389.43499755859375,296.5249938964844 400.8340148925781,312.125 412.8340148925781,327.0249938964844 C424.7340087890625,341.82501220703125 437.2349853515625,356.0249938964844 450.8349914550781,368.0249938964844 C464.43499755859375,380.0249938964844 479.2340087890625,389.82501220703125 495.3340148925781,395.625 C512.333984375,401.5249938964844 531.333984375,405.92498779296875 550.0339965820312,410.125 C625.6339721679688,426.125 703.2340087890625,437.7250061035156 780.333984375,448.32501220703125 C780.333984375,448.32501220703125 789.4349975585938,449.5249938964844 789.4349975585938,449.5249938964844 C789.4349975585938,449.5249938964844 792.9349975585938,457.7250061035156 792.9349975585938,457.7250061035156 C795.5349731445312,463.82501220703125 797.4349975585938,469.125 799.4349975585938,474.92498779296875 C801.3350219726562,480.5249938964844 803.135009765625,486.2250061035156 804.7349853515625,491.92498779296875 C808.0349731445312,503.32501220703125 810.5349731445312,514.9249877929688 812.635009765625,526.7249755859375 C816.5349731445312,550.2249755859375 818.333984375,574.4249877929688 815.5339965820312,598.8250122070312 C812.833984375,623.125 805.7349853515625,647.7249755859375 792.635009765625,669.5250244140625 C779.5349731445312,691.3250122070312 760.4349975585938,709.2249755859375 739.2349853515625,722.0250244140625 C717.9349975585938,735.0250244140625 694.635009765625,742.625 671.4349975585938,748.2249755859375 C671.4349975585938,748.2249755859375 653.9349975585938,751.9249877929688 653.9349975585938,751.9249877929688 C648.0349731445312,752.8250122070312 642.2340087890625,753.5250244140625 636.333984375,754.3250122070312 C624.6339721679688,756.2249755859375 612.9340209960938,756.4249877929688 601.2340087890625,757.2249755859375 C598.333984375,757.3250122070312 595.333984375,757.625 592.4340209960938,757.625 C592.4340209960938,757.625 583.7340087890625,757.625 583.7340087890625,757.625 C583.7340087890625,757.625 566.2340087890625,757.5239868164062 566.2340087890625,757.5239868164062 C560.4340209960938,757.6240234375 554.6339721679688,757.2239990234375 548.833984375,756.823974609375 C548.833984375,756.823974609375 531.4349975585938,755.823974609375 531.4349975585938,755.823974609375 C531.4349975585938,755.823974609375 522.7349853515625,755.323974609375 522.7349853515625,755.323974609375 C522.7349853515625,755.323974609375 514.135009765625,754.4249877929688 514.135009765625,754.4249877929688 C514.135009765625,754.4249877929688 496.93499755859375,752.625 496.93499755859375,752.625 C491.135009765625,751.9249877929688 485.5350036621094,751.6240234375 479.635009765625,750.5239868164062 C479.635009765625,750.5239868164062 462.03399658203125,747.5239868164062 462.03399658203125,747.5239868164062 C415.3340148925781,738.323974609375 370.8340148925781,718.8250122070312 331.9339904785156,692.125 C312.4339904785156,678.8250122070312 294.03399658203125,664.125 277.1340026855469,647.9249877929688 C260.1340026855469,631.8250122070312 244.13400268554688,614.7249755859375 229.53399658203125,596.7249755859375 C199.83399963378906,560.8250122070312 175.23399353027344,521.4249877929688 152.03399658203125,481.5249938964844 C140.53399658203125,461.42498779296875 130.63400268554688,440.5249938964844 122.63400268554688,418.82501220703125 C118.53399658203125,408.0249938964844 115.23400115966797,396.92498779296875 112.53399658203125,385.625 C109.93399810791016,374.32501220703125 107.83399963378906,362.82501220703125 107.43399810791016,350.7250061035156 C107.33399963378906,347.625 109.73400115966797,345.125 112.83399963378906,345.0249938964844 C114.73400115966797,344.92498779296875 116.53399658203125,345.92498779296875 117.53399658203125,347.32501220703125 C117.53399658203125,347.32501220703125 117.63400268554688,347.5249938964844 117.63400268554688,347.5249938964844 C124.23400115966797,357.0249938964844 130.03399658203125,366.82501220703125 135.53399658203125,376.5249938964844 C141.23399353027344,386.2250061035156 146.33399963378906,396.125 151.53399658203125,406.0249938964844 C151.53399658203125,406.0249938964844 181.73399353027344,465.42498779296875 181.73399353027344,465.42498779296875 C201.63400268554688,505.125 226.33399963378906,542.3250122070312 254.13400268554688,576.4249877929688 C268.03399658203125,593.625 283.03399658203125,609.625 298.9339904785156,624.625 C314.7340087890625,639.8250122070312 331.8340148925781,653.4249877929688 349.7340087890625,665.625 C367.53399658203125,678.0250244140625 386.7340087890625,688.3250122070312 406.4339904785156,696.9249877929688 C426.1340026855469,705.8250122070312 446.9339904785156,711.625 467.9339904785156,716.0250244140625 C467.9339904785156,716.0250244140625 483.8340148925781,718.7249755859375 483.8340148925781,718.7249755859375 C489.1340026855469,719.625 494.8340148925781,720.0250244140625 500.3340148925781,720.7249755859375 C500.3340148925781,720.7249755859375 516.9340209960938,722.5250244140625 516.9340209960938,722.5250244140625 C516.9340209960938,722.5250244140625 525.2340087890625,723.4249877929688 525.2340087890625,723.4249877929688 C525.2340087890625,723.4249877929688 533.5339965820312,723.9249877929688 533.5339965820312,723.9249877929688 C533.5339965820312,723.9249877929688 550.1339721679688,724.9249877929688 550.1339721679688,724.9249877929688 C555.6339721679688,725.2249755859375 561.2340087890625,725.625 566.6339721679688,725.5250244140625 C566.6339721679688,725.5250244140625 583.1339721679688,725.625 583.1339721679688,725.625 C583.1339721679688,725.625 591.4340209960938,725.625 591.4340209960938,725.625 C594.1339721679688,725.625 596.9340209960938,725.3250122070312 599.6339721679688,725.2249755859375 C610.5339965820312,724.5250244140625 621.5339965820312,724.3250122070312 632.2340087890625,722.5250244140625 C637.6339721679688,721.8250122070312 643.0339965820312,721.2249755859375 648.333984375,720.3250122070312 C648.333984375,720.3250122070312 664.0339965820312,717.0250244140625 664.0339965820312,717.0250244140625 C684.7340087890625,712.0250244140625 705.0339965820312,705.3250122070312 722.4340209960938,694.625 C739.9340209960938,684.0250244140625 754.7340087890625,670.0250244140625 765.1339721679688,652.9249877929688 C775.4340209960938,635.8250122070312 781.333984375,615.9249877929688 783.5339965820312,595.3250122070312 C785.9340209960938,574.7249755859375 784.4340209960938,553.2249755859375 780.833984375,532.125 C778.9340209960938,521.5250244140625 776.6339721679688,511.0249938964844 773.6339721679688,500.625 C772.1339721679688,495.42498779296875 770.5339965820312,490.32501220703125 768.833984375,485.2250061035156 C767.1339721679688,480.2250061035156 765.2340087890625,474.92498779296875 763.333984375,470.625 C763.333984375,470.625 775.9340209960938,480.0249938964844 775.9340209960938,480.0249938964844 C697.9340209960938,469.32501220703125 620.5339965820312,457.82501220703125 542.9340209960938,441.42498779296875 C523.4340209960938,436.92498779296875 504.2340087890625,432.7250061035156 484.2340087890625,425.7250061035156 C463.4339904785156,418.2250061035156 445.1340026855469,405.82501220703125 429.4339904785156,392.0249938964844 C413.7340087890625,378.125 400.2340087890625,362.7250061035156 387.6340026855469,347.0249938964844 C375.03399658203125,331.32501220703125 363.3340148925781,315.42498779296875 351.8340148925781,299.5249938964844 C328.8340148925781,267.7250061035156 306.1340026855469,236.52499389648438 281.3340148925781,207.125 C268.8340148925781,192.625 256.1340026855469,178.22500610351562 242.4340057373047,164.9250030517578 C235.73399353027344,158.125 228.63400268554688,151.8249969482422 221.73399353027344,145.22500610351562 C214.4340057373047,139.125 207.4340057373047,132.625 199.9340057373047,126.92500305175781 C170.23399353027344,103.2249984741211 138.53399658203125,82.32499694824219 105.43399810791016,63.625 C72.13400268554688,45.125 37.73400115966797,28.825000762939453 2.8340001106262207,10.125 C2.8340001106262207,10.125 2.8340001106262207,10.125 2.8340001106262207,10.125 C0.23399999737739563,8.725000381469727 -0.765999972820282,5.425000190734863 0.6340000033378601,2.7249999046325684 C1.6339999437332153,0.824999988079071 3.734999895095825,-0.17499999701976776 5.934999942779541,0.02500000037252903z"></path></g></g><g transform="matrix(1,0,0,1,2868.751953125,2303.20458984375)" opacity="1" style="display: block;"><g opacity="1" transform="matrix(1,0,0,1,0,0)"><path fill="rgb(255,255,255)" fill-opacity="1" d=" M65.0479965209961,125.2509994506836 C73.947998046875,134.4510040283203 88.5479965209961,134.8509979248047 98.0479965209961,126.1510009765625 C120.3479995727539,105.7509994506836 164.54800415039062,73.95099639892578 224.34800720214844,72.95099639892578 C271.8479919433594,72.1510009765625 189.947998046875,-5.848999977111816 114.947998046875,0.35100001096725464 C65.14800262451172,4.451000213623047 29.54800033569336,26.35099983215332 8.347999572753906,44.35100173950195 C-4.052000045776367,54.85100173950195 -2.3519999980926514,74.35099792480469 11.54800033569336,82.7509994506836 C20.24799919128418,88.0510025024414 30.847999572753906,95.0510025024414 42.64799880981445,104.35099792480469 C49.14799880981445,109.35099792480469 57.64799880981445,117.6510009765625 65.0479965209961,125.2509994506836z"></path></g></g><g transform="matrix(1,0,0,1,2868.73583984375,2332.755615234375)" opacity="0.35000000000000003" style="display: block;"><g opacity="1" transform="matrix(1,0,0,1,0,0)"><path fill="rgb(107,24,78)" fill-opacity="1" d=" M11.564000129699707,53.099998474121094 C20.263999938964844,58.400001525878906 30.763999938964844,65.4000015258789 42.66400146484375,74.69999694824219 C49.16400146484375,79.80000305175781 57.66400146484375,88.0999984741211 65.06400299072266,95.69999694824219 C73.96399688720703,104.9000015258789 88.56400299072266,105.30000305175781 98.06400299072266,96.5999984741211 C120.46399688720703,76.0999984741211 164.66400146484375,44.400001525878906 224.36399841308594,43.400001525878906 C249.96400451660156,43 237.96400451660156,20 209.66400146484375,0 C152.86399841308594,2.9000000953674316 110.86399841308594,33.29999923706055 89.16400146484375,53 C79.76399993896484,61.70000076293945 65.16400146484375,61.29999923706055 56.16400146484375,52.099998474121094 C48.763999938964844,44.5 40.263999938964844,36.20000076293945 33.763999938964844,31.100000381469727 C24.763999938964844,24.100000381469727 16.663999557495117,18.399999618530273 9.46399974822998,13.800000190734863 C9.064000129699707,14.100000381469727 8.663999557495117,14.399999618530273 8.263999938964844,14.800000190734863 C-4.035999774932861,25.299999237060547 -2.3359999656677246,44.70000076293945 11.564000129699707,53.099998474121094z"></path></g></g><g transform="matrix(1,0,0,1,2866.931884765625,2303.20458984375)" opacity="1" style="display: block;"><g opacity="1" transform="matrix(1,0,0,1,0,0)"><path stroke-linecap="round" stroke-linejoin="miter" fill-opacity="0" stroke-miterlimit="4" stroke="rgb(107,24,78)" stroke-opacity="1" stroke-width="32" d=" M68.46700286865234,126.85099792480469 C76.46700286865234,135.1510009765625 89.76699829101562,135.6510009765625 98.16699981689453,127.7509994506836 C119.86699676513672,107.45099639892578 164.86700439453125,73.95099639892578 226.16700744628906,72.95099639892578 C273.6669921875,72.1510009765625 191.76699829101562,-5.848999977111816 116.76699829101562,0.35100001096725464 C64.36699676513672,4.651000022888184 27.867000579833984,28.650999069213867 7.066999912261963,47.05099868774414 C-3.7330000400543213,56.55099868774414 -1.8329999446868896,73.7509994506836 10.567000389099121,81.0510025024414 C19.767000198364258,86.45099639892578 31.367000579833984,94.0510025024414 44.56700134277344,104.35099792480469 C51.46699905395508,109.7509994506836 60.66699981689453,118.85099792480469 68.46700286865234,126.85099792480469z"></path></g></g><g transform="matrix(1,0,0,1,2991.31298828125,2331.28076171875)" opacity="1" style="display: block;"><g opacity="1" transform="matrix(1,0,0,1,0,0)"><path fill="rgb(255,255,255)" fill-opacity="1" d=" M40.18600082397461,234.6750030517578 C40.18600082397461,234.6750030517578 112.28600311279297,255.0749969482422 138.58599853515625,169.6750030517578 C174.68600463867188,52.474998474121094 86.28600311279297,-5.925000190734863 66.98600006103516,0.4749999940395355 C47.68600082397461,6.775000095367432 74.48600006103516,73.2750015258789 11.28600025177002,129.375 C-12.013999938964844,150.0749969482422 2.2860000133514404,204.1750030517578 40.18600082397461,234.6750030517578z"></path></g></g><g transform="matrix(1,0,0,1,2991.343017578125,2408.855712890625)" opacity="0.35000000000000003" style="display: block;"><g opacity="1" transform="matrix(1,0,0,1,0,0)"><path fill="rgb(107,24,78)" fill-opacity="1" d=" M40.15599822998047,157.10000610351562 C40.15599822998047,157.10000610351562 112.25599670410156,177.5 138.55599975585938,92.0999984741211 C149.75599670410156,55.70000076293945 148.95599365234375,24.899999618530273 141.95599365234375,0 C140.95599365234375,4 139.8560028076172,8.100000381469727 138.55599975585938,12.300000190734863 C112.25599670410156,97.69999694824219 40.15599822998047,77.30000305175781 40.15599822998047,77.30000305175781 C29.856000900268555,69.0999984741211 21.356000900268555,59.099998474121094 14.855999946594238,48.5 C13.656000137329102,49.599998474121094 12.555999755859375,50.70000076293945 11.355999946594238,51.70000076293945 C-12.043999671936035,72.5 2.25600004196167,126.5999984741211 40.15599822998047,157.10000610351562z"></path></g></g><g transform="matrix(1,0,0,1,2991.31298828125,2331.28076171875)" opacity="1" style="display: block;"><g opacity="1" transform="matrix(1,0,0,1,0,0)"><path stroke-linecap="round" stroke-linejoin="miter" fill-opacity="0" stroke-miterlimit="4" stroke="rgb(107,24,78)" stroke-opacity="1" stroke-width="32" d=" M40.18600082397461,234.6750030517578 C40.18600082397461,234.6750030517578 112.28600311279297,255.0749969482422 138.58599853515625,169.6750030517578 C174.68600463867188,52.474998474121094 86.28600311279297,-5.925000190734863 66.98600006103516,0.4749999940395355 C47.68600082397461,6.775000095367432 74.48600006103516,73.2750015258789 11.28600025177002,129.375 C-12.013999938964844,150.0749969482422 2.2860000133514404,204.1750030517578 40.18600082397461,234.6750030517578z"></path></g></g><g transform="matrix(1,0,0,1,2943.97998046875,2503.95654296875)" opacity="1" style="display: block;"><g opacity="1" transform="matrix(1,0,0,1,0,0)"><path fill="rgb(255,255,255)" fill-opacity="1" d=" M20.41900062561035,120 C34.819000244140625,134.5 55.61899948120117,141.39999389648438 107.11900329589844,132 C212.31900024414062,112.9000015258789 290.91900634765625,39.79999923706055 265.5190124511719,12.800000190734863 C248.41900634765625,-5.400000095367432 213.0189971923828,9.699999809265137 168.5189971923828,11.5 C89.71900177001953,14.699999809265137 68.91899871826172,0 50.51900100708008,0 C9.718999862670898,0 -22.680999755859375,76.5 20.41900062561035,120z"></path></g></g><g transform="matrix(1,0,0,1,2943.989990234375,2518.755615234375)" opacity="0.35000000000000003" style="display: block;"><g opacity="1" transform="matrix(1,0,0,1,0,0)"><path fill="rgb(107,24,78)" fill-opacity="1" d=" M20.409000396728516,105.0999984741211 C34.808998107910156,119.69999694824219 55.60900115966797,126.5 107.10900115966797,117.0999984741211 C209.70899963378906,98.5 287.0090026855469,28.5 267.1090087890625,0 C239.3090057373047,28.100000381469727 186.8090057373047,57.79999923706055 125.30899810791016,69 C73.90899658203125,78.4000015258789 53.00899887084961,71.5 38.60900115966797,57 C23.108999252319336,41.400001525878906 17.409000396728516,21.399999618530273 18.30900001525879,2.4000000953674316 C-2.7909998893737793,27.5 -9.991000175476074,74.5 20.409000396728516,105.0999984741211z"></path></g></g><g transform="matrix(1,0,0,1,2943.97998046875,2503.95654296875)" opacity="1" style="display: block;"><g opacity="1" transform="matrix(1,0,0,1,0,0)"><path stroke-linecap="round" stroke-linejoin="miter" fill-opacity="0" stroke-miterlimit="4" stroke="rgb(107,24,78)" stroke-opacity="1" stroke-width="32" d=" M20.41900062561035,120 C34.819000244140625,134.5 55.61899948120117,141.39999389648438 107.11900329589844,132 C212.31900024414062,112.9000015258789 290.91900634765625,39.79999923706055 265.5190124511719,12.800000190734863 C248.41900634765625,-5.400000095367432 213.0189971923828,9.699999809265137 168.5189971923828,11.5 C89.71900177001953,14.699999809265137 68.91899871826172,0 50.51900100708008,0 C9.718999862670898,0 -22.680999755859375,76.5 20.41900062561035,120z"></path></g></g><g transform="matrix(1,0,0,1,1471.2998046875,1928.0556640625)" opacity="0.35000000000000003" style="display: block;"><g opacity="1" transform="matrix(1,0,0,1,0,0)"><path fill="rgb(107,24,78)" fill-opacity="1" d=" M1075.300048828125,110.30000305175781 C1064.5999755859375,115.69999694824219 1053.5999755859375,121 1042.4000244140625,126.0999984741211 C1004.4000244140625,143.3000030517578 963.5999755859375,158 920.5999755859375,170.39999389648438 C808.4000244140625,202.6999969482422 680.7999877929688,218.8000030517578 545.5,219.1999969482422 C401.8999938964844,219.60000610351562 266.8999938964844,202.1999969482422 149.6999969482422,166.39999389648438 C107.5,153.60000610351562 67.5,138.3000030517578 30.299999237060547,120.5999984741211 C20,115.69999694824219 9.899999618530273,110.5999984741211 0,105.4000015258789 C17.299999237060547,91.4000015258789 36,78 56.400001525878906,65.19999694824219 C59,60 60.400001525878906,57.29999923706055 60.400001525878906,57.29999923706055 C60.400001525878906,57.29999923706055 69.5,57.29999923706055 69.5,57.29999923706055 C107.5,35.099998474121094 184.10000610351562,57.29999923706055 184.10000610351562,57.29999923706055 C184.10000610351562,57.29999923706055 885.2000122070312,57.29999923706055 885.2000122070312,57.29999923706055 C885.2000122070312,57.29999923706055 867.2000122070312,0 867.2000122070312,0 C918.0999755859375,15.399999618530273 961.7999877929688,35 999.7999877929688,57.29999923706055 C999.7999877929688,57.29999923706055 1010,57.29999923706055 1010,57.29999923706055 C1010,57.29999923706055 1011.5999755859375,60.29999923706055 1014.5,66.19999694824219 C1036.5999755859375,80 1056.800048828125,94.9000015258789 1075.300048828125,110.30000305175781z"></path></g></g><g transform="matrix(1,0,0,1,1199.597900390625,542.70361328125)" opacity="1" style="display: block;"><g opacity="1" transform="matrix(1,0,0,1,0,0)"><path fill="rgb(236,193,142)" fill-opacity="1" d=" M1631.5030517578125,974.8510131835938 C1632.5030517578125,1343.7509765625 1267.7030029296875,1519.2509765625 817.2030029296875,1520.4510498046875 C366.7030029296875,1521.6510009765625 1.003000020980835,1348.051025390625 0.003000000026077032,979.1510009765625 C-0.8970000147819519,625.551025390625 227.5030059814453,221.1510009765625 744.802978515625,186.8509979248047 C807.302978515625,154.75100708007812 891.9030151367188,99.2509994506836 939.4030151367188,17.250999450683594 C954.302978515625,-8.348999977111816 992.10302734375,-4.749000072479248 1001.60302734375,23.35099983215332 C1014.2030029296875,60.750999450683594 1025.7030029296875,109.95099639892578 1000.802978515625,173.4510040283203 C1069.9029541015625,139.6510009765625 1138.60302734375,101.2509994506836 1161.2030029296875,80.85099792480469 C1185.4029541015625,59.05099868774414 1224.0030517578125,76.7509994506836 1222.9029541015625,109.2509994506836 C1221.9029541015625,140.75100708007812 1210.7030029296875,207.4510040283203 1197.7030029296875,263.45098876953125 C1494.802978515625,403.0509948730469 1630.802978515625,703.551025390625 1631.5030517578125,974.8510131835938z"></path></g></g><g transform="matrix(1,0,0,1,1199.599853515625,1476.5556640625)" opacity="0.35000000000000003" style="display: block;"><g opacity="1" transform="matrix(1,0,0,1,0,0)"><path fill="rgb(107,24,78)" fill-opacity="1" d=" M1631.5,41 C1632.5,409.8999938964844 1267.699951171875,585.4000244140625 817.2000122070312,586.5999755859375 C366.70001220703125,587.7999877929688 1,414.20001220703125 0,45.400001525878906 C0,30.5 0.30000001192092896,15.5 1.100000023841858,0.4000000059604645 C23.299999237060547,346.6000061035156 380.29998779296875,509.79998779296875 817.2000122070312,508.6000061035156 C1252.4000244140625,507.3999938964844 1607.5999755859375,343.6000061035156 1630.4000244140625,0 C1631.0999755859375,13.699999809265137 1631.5,27.399999618530273 1631.5,41z"></path></g></g><g transform="matrix(1,0,0,1,1226.39990234375,542.70361328125)" opacity="0.3" style="display: block;"><g opacity="1" transform="matrix(1,0,0,1,0,0)"><path fill="rgb(255,255,255)" fill-opacity="1" d=" M1575.300048828125,1145.1510009765625 C1583.0999755859375,1110.3509521484375 1587.0999755859375,1073.3509521484375 1587,1034.2509765625 C1586.300048828125,779.051025390625 1446.5,483.1510009765625 1182.800048828125,332.85101318359375 C1152.800048828125,315.7510070800781 1137.199951171875,281.35101318359375 1144.5999755859375,247.6510009765625 C1153,209.6510009765625 1159.9000244140625,173.8509979248047 1160.5,153.05099487304688 C1161.5,120.5510025024414 1140.9000244140625,118.45099639892578 1116.800048828125,140.25100708007812 C1099.0999755859375,156.1510009765625 1053.300048828125,183.1510009765625 1001.0999755859375,210.3509979248047 C985.0999755859375,218.6510009765625 966.0999755859375,205.4510040283203 968.7999877929688,187.55099487304688 C975.4000244140625,145.3509979248047 966.5999755859375,110.7509994506836 957.0999755859375,82.7509994506836 C947.5999755859375,54.6510009765625 931.5,47.55099868774414 909.0999755859375,86.5510025024414 C877.5999755859375,141.25100708007812 823,179.75100708007812 771.7000122070312,208.8509979248047 C730.5999755859375,232.05099487304688 685.0999755859375,246.25100708007812 638.2999877929688,252.25100708007812 C289.8999938964844,297.2510070800781 84.0999984741211,518.051025390625 0,766.551025390625 C73.9000015258789,480.0509948730469 303,214.3509979248047 718,186.8509979248047 C780.5,154.75100708007812 865.0999755859375,99.2509994506836 912.5999755859375,17.250999450683594 C927.5,-8.348999977111816 965.2999877929688,-4.749000072479248 974.7999877929688,23.35099983215332 C987.4000244140625,60.750999450683594 998.9000244140625,109.95099639892578 974,173.4510040283203 C1043.0999755859375,139.6510009765625 1111.800048828125,101.2509994506836 1134.4000244140625,80.85099792480469 C1158.5999755859375,59.05099868774414 1197.199951171875,76.7509994506836 1196.0999755859375,109.2509994506836 C1195.0999755859375,140.75100708007812 1183.9000244140625,207.4510040283203 1170.9000244140625,263.45098876953125 C1467.9000244140625,402.85101318359375 1603.9000244140625,703.3510131835938 1604.5999755859375,974.6510009765625 C1604.9000244140625,1037.1510009765625 1594.699951171875,1093.8509521484375 1575.300048828125,1145.1510009765625z"></path></g></g><g transform="matrix(1,0,0,1,1333.7958984375,1075.6536865234375)" opacity="1" style="display: block;"><g opacity="1" transform="matrix(1,0,0,1,0,0)"><path fill="rgb(254,250,251)" fill-opacity="1" d=" M1336.10400390625,392.5010070800781 C1336.404052734375,500.0010070800781 1304.10400390625,615.801025390625 1206.7039794921875,705.5009765625 C1107.2039794921875,797.2009887695312 939.7039794921875,861.7009887695312 669.3040161132812,862.4010009765625 C669.3040161132812,862.4010009765625 669.3040161132812,862.4010009765625 669.3040161132812,862.4010009765625 C401.8039855957031,863.1010131835938 234.60400390625,800.802001953125 134.20399475097656,711.2020263671875 C33.90399932861328,621.6019897460938 0.30399999022483826,504.70098876953125 0.004000000189989805,396.0010070800781 C-0.09600000083446503,373.9010009765625 1.7039999961853027,352.20098876953125 5.203999996185303,331.10101318359375 C35.604000091552734,144.50100708007812 197.3040008544922,1.9010000228881836 392.5039978027344,1.4010000228881836 C499.3039855957031,1.1009999513626099 596.3040161132812,43.4010009765625 667.3040161132812,112.3010025024414 C738.0040283203125,43.000999450683594 834.8040161132812,0.3009999990463257 941.5040283203125,0.0010000000474974513 C1134.303955078125,-0.49900001287460327 1295.0040283203125,137.7010040283203 1329.303955078125,320.60101318359375 C1329.303955078125,320.60101318359375 1329.303955078125,320.60101318359375 1329.303955078125,320.60101318359375 C1333.7039794921875,343.9010009765625 1336.0040283203125,367.9010009765625 1336.10400390625,392.5010070800781z"></path></g></g><g transform="matrix(0.8128558993339539,0,0,1,1920.939453125,1428.7027587890625)" opacity="1" style="display: block;"><g opacity="1" transform="matrix(1,0,0,1,0,0)"><path fill="rgb(107,24,78)" fill-opacity="1" d=" M199.1999969482422,47.30099868774414 C199.3000030517578,80.8010025024414 154.8000030517578,121.20099639892578 99.80000305175781,121.3010025024414 C44.79999923706055,121.4010009765625 0.10000000149011612,81.3010025024414 0,47.80099868774414 C-0.10000000149011612,14.300999641418457 44.5,0.10000000149011612 99.5,0 C154.5,-0.10000000149011612 199.1999969482422,13.800999641418457 199.1999969482422,47.30099868774414z"></path></g></g><g transform="matrix(1,0,0,1,1964.099853515625,1446.70166015625)" opacity="0.5" style="display: block;"><g opacity="1" transform="matrix(1,0,0,1,0,0)"><path fill="rgb(254,250,251)" fill-opacity="1" d=" M81.0999984741211,10.902000427246094 C81.0999984741211,18.70199966430664 63,28.20199966430664 40.599998474121094,28.302000045776367 C18.200000762939453,28.402000427246094 0,19.00200080871582 0,11.20199966430664 C0,3.4019999504089355 18.100000381469727,0.0020000000949949026 40.5,0.0020000000949949026 C62.900001525878906,-0.09799999743700027 81.0999984741211,3.1019999980926514 81.0999984741211,10.902000427246094z"></path></g></g><g transform="matrix(0.8877135515213013,0,0,1,1897.6124267578125,1600.7427978515625)" opacity="1" style="display: block;"><g opacity="1" transform="matrix(1,0,0,1,0,0)"><path fill="rgb(107,24,78)" fill-opacity="1" d=" M231.5749969482422,32.65999984741211 C227.27499389648438,36.65999984741211 223.5749969482422,39.65999984741211 219.375,42.7599983215332 C215.27499389648438,45.7599983215332 210.97500610351562,48.459999084472656 206.6750030517578,51.15999984741211 C197.97500610351562,56.36000061035156 188.77499389648438,60.7599983215332 179.1750030517578,64.36000061035156 C159.97500610351562,71.66000366210938 139.0749969482422,75.86000061035156 117.375,75.55999755859375 C95.375,75.16000366210938 74.4749984741211,69.95999908447266 55.57500076293945,61.65999984741211 C46.17499923706055,57.459999084472656 37.17499923706055,52.65999984741211 28.674999237060547,47.060001373291016 C24.475000381469727,44.15999984741211 20.375,41.36000061035156 16.375,38.060001373291016 C12.375,34.86000061035156 8.774999618530273,31.65999984741211 4.675000190734863,27.459999084472656 C-1.625,21.15999984741211 -1.524999976158142,10.859999656677246 4.775000095367432,4.659999847412109 C9.175000190734863,0.36000001430511475 15.375,-0.9399999976158142 20.875,0.6600000262260437 C20.875,0.6600000262260437 23.274999618530273,1.4600000381469727 23.274999618530273,1.4600000381469727 C26.774999618530273,2.559999942779541 31.075000762939453,4.260000228881836 35.07500076293945,5.559999942779541 C39.17499923706055,6.960000038146973 43.17499923706055,8.460000038146973 47.17499923706055,9.65999984741211 C55.275001525878906,12.260000228881836 63.275001525878906,14.65999984741211 71.2750015258789,16.65999984741211 C87.17500305175781,20.760000228881836 102.875,23.15999984741211 117.875,23.360000610351562 C125.4749984741211,23.360000610351562 133.375,23.059999465942383 141.27499389648438,22.059999465942383 C149.1750030517578,21.260000228881836 157.1750030517578,19.860000610351562 165.27499389648438,18.260000228881836 C173.375,16.65999984741211 181.5749969482422,14.65999984741211 189.77499389648438,12.460000038146973 C193.875,11.460000038146973 197.97500610351562,10.15999984741211 202.0749969482422,9.0600004196167 C206.0749969482422,7.960000038146973 210.47500610351562,6.460000038146973 214.0749969482422,5.559999942779541 C214.0749969482422,5.559999942779541 216.6750030517578,4.960000038146973 216.6750030517578,4.960000038146973 C225.375,2.859999895095825 234.0749969482422,8.15999984741211 236.1750030517578,16.860000610351562 C237.6750030517578,22.959999084472656 235.6750030517578,28.860000610351562 231.5749969482422,32.65999984741211z"></path></g></g><g transform="matrix(1,0,0,1,1199.597900390625,734.254638671875)" opacity="1" style="display: block;"><g opacity="1" transform="matrix(1,0,0,1,0,0)"><path stroke-linecap="round" stroke-linejoin="miter" fill-opacity="0" stroke-miterlimit="4" stroke="rgb(107,24,78)" stroke-opacity="1" stroke-width="32" d=" M333.8030090332031,1244.5 C131.9029998779297,1159.199951171875 0.6029999852180481,1008.4000244140625 0.003000000026077032,787.5999755859375 C-0.8970000147819519,445.79998779296875 212.5030059814453,56.5 694.0029907226562,0"></path></g></g><g transform="matrix(1,0,0,1,1525.703857421875,1966.817626953125)" opacity="1" style="display: block;"><g opacity="1" transform="matrix(1,0,0,1,0,0)"><path fill="rgb(107,24,78)" fill-opacity="1" d=" M112.09600067138672,50.83700180053711 C102.7959976196289,51.137001037597656 93.69599914550781,50.5369987487793 84.69599914550781,49.73699951171875 C75.69599914550781,48.73699951171875 66.69599914550781,47.4370002746582 57.895999908447266,45.73699951171875 C48.99599838256836,44.0369987487793 40.19599914550781,42.137001037597656 31.695999145507812,39.23699951171875 C23.195999145507812,36.33700180053711 14.795999526977539,32.9370002746582 7.0960001945495605,28.136999130249023 C-0.004000000189989805,23.636999130249023 -2.1040000915527344,14.237000465393066 2.2960000038146973,7.13700008392334 C5.796000003814697,1.5369999408721924 12.295999526977539,-0.9629999995231628 18.395999908447266,0.3370000123977661 C18.395999908447266,0.3370000123977661 18.496000289916992,0.3370000123977661 18.496000289916992,0.3370000123977661 C27.09600067138672,2.236999988555908 35.09600067138672,5.336999893188477 43.09600067138672,8.63700008392334 C51.09600067138672,12.036999702453613 58.79600143432617,16.136999130249023 66.59600067138672,20.136999130249023 C74.39600372314453,24.136999130249023 82.19599914550781,28.336999893188477 89.99600219726562,32.637001037597656 C97.7959976196289,37.0369987487793 105.59600067138672,41.5369987487793 113.19599914550781,46.73699951171875 C114.19599914550781,47.4370002746582 114.49600219726562,48.83700180053711 113.7959976196289,49.83700180053711 C113.49600219726562,50.4370002746582 112.7959976196289,50.73699951171875 112.09600067138672,50.83700180053711z"></path></g></g><g transform="matrix(1,0,0,1,2143.3740234375,1273.587646484375)" opacity="1" style="display: block;"><g opacity="1" transform="matrix(1,0,0,1,0,0)"><path fill="rgb(112,113,105)" fill-opacity="1" d=" M526.5269775390625,194.5679931640625 C526.8270263671875,302.0679931640625 494.5270080566406,417.8680114746094 397.12701416015625,507.5679931640625 C362.3269958496094,468.1679992675781 310.0270080566406,423.9679870605469 234.927001953125,394.0679931640625 C112.3270034790039,345.1679992675781 18.427000045776367,318.0679931640625 1.4270000457763672,201.5679931640625 C-10.77299976348877,117.96800231933594 55.926998138427734,18.26799964904785 176.02699279785156,3.4679999351501465 C335.0270080566406,-16.131999969482422 447.12701416015625,50.56800079345703 519.8270263671875,122.76799774169922 C519.8270263671875,122.76799774169922 519.8270263671875,122.76799774169922 519.8270263671875,122.76799774169922 C524.1270141601562,145.96800231933594 526.427001953125,169.96800231933594 526.5269775390625,194.5679931640625z"></path></g></g><g transform="matrix(1,0,0,1,1333.7958984375,1275.292724609375)" opacity="1" style="display: block;"><g opacity="1" transform="matrix(1,0,0,1,0,0)"><path fill="rgb(112,113,105)" fill-opacity="1" d=" M530.8040161132812,200.46299743652344 C514.4039916992188,316.9630126953125 420.7040100097656,344.6619873046875 298.3039855957031,394.1619873046875 C221.50399780273438,425.2619934082031 168.70399475097656,471.1629943847656 134.20399475097656,511.4630126953125 C33.90399932861328,421.8630065917969 0.30399999022483826,304.9620056152344 0.004000000189989805,196.26199340820312 C-0.09600000083446503,174.16200256347656 1.7039999961853027,152.46200561523438 5.203999996185303,131.36199951171875 C77.2040023803711,56.1619987487793 191.00399780273438,-16.13800048828125 355.2040100097656,3.1619999408721924 C475.3039855957031,17.461999893188477 542.60400390625,116.86299896240234 530.8040161132812,200.46299743652344z"></path></g></g><g transform="matrix(1,0,0,1,1534.4168701171875,1395.857666015625)" opacity="1" style="display: block;"><g opacity="1" transform="matrix(1,0,0,1,0,0)"><path fill="rgb(107,24,78)" fill-opacity="1" d=" M3.882999897003174,60.44599914550781 C5.982999801635742,57.84600067138672 7.583000183105469,56.04600143432617 9.383000373840332,54.04600143432617 C11.182999610900879,52.145999908447266 13.083000183105469,50.24599838256836 14.883000373840332,48.44599914550781 C18.58300018310547,44.74599838256836 22.58300018310547,41.54600143432617 26.683000564575195,38.24599838256836 C34.882999420166016,31.84600067138672 43.58300018310547,26.145999908447266 52.882999420166016,21.246000289916992 C71.38300323486328,11.446000099182129 91.78299713134766,4.745999813079834 113.08300018310547,1.6460000276565552 C123.68299865722656,0.1459999978542328 134.58299255371094,-0.2540000081062317 145.2830047607422,0.1459999978542328 C156.08299255371094,0.7459999918937683 166.7830047607422,2.3459999561309814 177.18299865722656,4.946000099182129 C197.98300170898438,10.345999717712402 217.38299560546875,19.746000289916992 233.38299560546875,32.94599914550781 C240.7830047607422,39.145999908447266 241.88299560546875,50.145999908447266 235.68299865722656,57.54600143432617 C231.48300170898438,62.645999908447266 224.98300170898438,64.74600219726562 218.88299560546875,63.54600143432617 C218.88299560546875,63.54600143432617 218.08299255371094,63.34600067138672 218.08299255371094,63.34600067138672 C200.58299255371094,59.94599914550781 184.2830047607422,56.94599914550781 168.2830047607422,55.74599838256836 C160.2830047607422,55.24599838256836 152.2830047607422,54.94599914550781 144.38299560546875,55.145999908447266 C136.48300170898438,55.34600067138672 128.58299255371094,56.04600143432617 120.68299865722656,56.94599914550781 C104.88300323486328,59.04600143432617 89.08300018310547,62.74599838256836 73.28299713134766,67.84600067138672 C65.38300323486328,70.34600067138672 57.483001708984375,73.24600219726562 49.483001708984375,76.34600067138672 C45.483001708984375,77.84600067138672 41.58300018310547,79.5459976196289 37.58300018310547,81.24600219726562 C37.58300018310547,81.24600219726562 31.683000564575195,83.84600067138672 31.683000564575195,83.84600067138672 C29.783000946044922,84.5459976196289 27.683000564575195,85.74600219726562 26.183000564575195,86.14600372314453 C26.183000564575195,86.14600372314453 21.482999801635742,87.44599914550781 21.482999801635742,87.44599914550781 C12.482999801635742,89.94599914550781 3.0829999446868896,84.74600219726562 0.5830000042915344,75.74600219726562 C-0.9169999957084656,70.34600067138672 0.5830000042915344,64.64600372314453 3.882999897003174,60.44599914550781z"></path></g></g><g transform="matrix(1,0,0,1,1893.5,542.8037109375)" opacity="1" style="display: block;"><g opacity="1" transform="matrix(1,0,0,1,0,0)"><path stroke-linecap="round" stroke-linejoin="miter" fill-opacity="0" stroke-miterlimit="4" stroke="rgb(107,24,78)" stroke-opacity="1" stroke-width="32" d=" M289.79998779296875,197.8509979248047 C335.8999938964844,148.25100708007812 325.70001220703125,76.7509994506836 307.70001220703125,23.35099983215332 C298.20001220703125,-4.749000072479248 260.3999938964844,-8.348999977111816 245.5,17.250999450683594 C163.89999389648438,158.05099487304688 0,191.4510040283203 0,191.4510040283203"></path></g></g><g transform="matrix(1,0,0,1,2199.7998046875,614.01171875)" opacity="1" style="display: block;"><g opacity="1" transform="matrix(1,0,0,1,0,0)"><path stroke-linecap="round" stroke-linejoin="round" fill-opacity="0" stroke="rgb(107,24,78)" stroke-opacity="1" stroke-width="32" d=" M281.1000061035156,1370.0439453125 C493.20001220703125,1285.2440185546875 631.9000244140625,1131.2440185546875 631.2999877929688,903.5440063476562 C630.5999755859375,631.4439697265625 493.79998779296875,329.9440002441406 195,191.04400634765625 C195,191.04400634765625 196.39999389648438,188.04400634765625 196.39999389648438,188.04400634765625 C214.89999389648438,147.94400024414062 221.1999969482422,87.84400177001953 222.8000030517578,38.04399871826172 C223.8000030517578,5.443999767303467 185.3000030517578,-12.156000137329102 161.10000610351562,9.644000053405762 C116.9000015258789,49.444000244140625 55.29999923706055,95.74400329589844 0,104.24400329589844"></path></g></g><g transform="matrix(1,0,0,1,2364.200927734375,1972.003662109375)" opacity="1" style="display: block;"><g opacity="1" transform="matrix(1,0,0,1,0,0)"><path fill="rgb(107,24,78)" fill-opacity="1" d=" M1.2999999523162842,47.45100021362305 C9.800000190734863,42.250999450683594 18.399999618530273,37.750999450683594 27,33.35100173950195 C35.599998474121094,28.951000213623047 44.20000076293945,24.750999450683594 52.79999923706055,20.650999069213867 C61.400001525878906,16.551000595092773 69.9000015258789,12.451000213623047 78.5999984741211,8.951000213623047 C87.30000305175781,5.451000213623047 96.0999984741211,2.3510000705718994 105.4000015258789,0.35100001096725464 C105.4000015258789,0.35100001096725464 105.5,0.35100001096725464 105.5,0.35100001096725464 C113.69999694824219,-1.4490000009536743 121.80000305175781,3.8510000705718994 123.5,12.050999641418457 C124.9000015258789,18.650999069213867 121.80000305175781,25.150999069213867 116.30000305175781,28.35099983215332 C107.80000305175781,33.35100173950195 98.69999694824219,36.85100173950195 89.4000015258789,39.750999450683594 C80.0999984741211,42.750999450683594 70.5,44.6510009765625 60.900001525878906,46.45100021362305 C51.29999923706055,48.250999450683594 41.599998474121094,49.55099868774414 31.799999237060547,50.55099868774414 C22,51.45100021362305 12.199999809265137,51.95100021362305 2.200000047683716,51.6510009765625 C1,51.6510009765625 0,50.55099868774414 0,49.35100173950195 C0.30000001192092896,48.55099868774414 0.699999988079071,47.85100173950195 1.2999999523162842,47.45100021362305z"></path></g></g><g transform="matrix(1,0,0,1,2246.657958984375,1394.0977783203125)" opacity="1" style="display: block;"><g opacity="1" transform="matrix(1,0,0,1,0,0)"><path fill="rgb(107,24,78)" fill-opacity="1" d=" M213.74200439453125,85.60600280761719 C212.3419952392578,85.20600128173828 210.14199829101562,84.10600280761719 208.24200439453125,83.40599822998047 C208.24200439453125,83.40599822998047 202.3419952392578,80.90599822998047 202.3419952392578,80.90599822998047 C198.3419952392578,79.30599975585938 194.44200134277344,77.50599670410156 190.44200134277344,76.10600280761719 C182.54200744628906,73.00599670410156 174.54200744628906,70.10600280761719 166.64199829101562,67.70600128173828 C150.74200439453125,62.60599899291992 134.94200134277344,59.10599899291992 119.14199829101562,57.00600051879883 C111.24199676513672,56.10599899291992 103.34200286865234,55.50600051879883 95.44200134277344,55.305999755859375 C87.54199981689453,55.10599899291992 79.54199981689453,55.50600051879883 71.54199981689453,56.00600051879883 C55.44200134277344,57.305999755859375 39.242000579833984,60.305999755859375 21.742000579833984,63.90599822998047 C21.742000579833984,63.90599822998047 20.941999435424805,64.10600280761719 20.941999435424805,64.10600280761719 C11.442000389099121,66.00599670410156 2.242000102996826,59.90599822998047 0.34200000762939453,50.40599822998047 C-0.9580000042915344,43.90599822998047 1.5420000553131104,37.50600051879883 6.242000102996826,33.50600051879883 C22.142000198364258,20.20599937438965 41.54199981689453,10.706000328063965 62.34199905395508,5.205999851226807 C72.74199676513672,2.50600004196167 83.44200134277344,0.906000018119812 94.24199676513672,0.20600000023841858 C105.04199981689453,-0.2939999997615814 115.84200286865234,0.10599999874830246 126.54199981689453,1.50600004196167 C147.8419952392578,4.50600004196167 168.3419952392578,11.105999946594238 186.8419952392578,20.805999755859375 C196.14199829101562,25.70599937438965 204.94200134277344,31.305999755859375 213.04200744628906,37.70600128173828 C217.14199829101562,41.00600051879883 221.14199829101562,44.20600128173828 224.8419952392578,47.90599822998047 C226.74200439453125,49.70600128173828 228.64199829101562,51.50600051879883 230.44200134277344,53.50600051879883 C232.3419952392578,55.50600051879883 233.8419952392578,57.305999755859375 236.04200744628906,59.90599822998047 C242.04200744628906,67.10600280761719 241.04200744628906,77.80599975585938 233.8419952392578,83.70600128173828 C229.44200134277344,87.30599975585938 223.74200439453125,88.40599822998047 218.64199829101562,87.00599670410156 C218.64199829101562,87.00599670410156 213.74200439453125,85.60600280761719 213.74200439453125,85.60600280761719z"></path></g></g></g></svg>